<svg id="Layer_1" data-name="Layer 1" xmlns="http://www.w3.org/2000/svg" viewBox="0 0 324.69 472.73"><defs><style>.cls-1{fill:#046831;}</style></defs><title>Logo</title><g id="_Group_" data-name="&lt;Group&gt;"><path id="_Compound_Path_" data-name="&lt;Compound Path&gt;" class="cls-1" d="M103.48,307.54v122H75.74l0-82.38-11,82.38H45l-11.65-80.5,0,80.5H5.57v-122H46.63q1.83,11,3.77,25.94l4.51,31,7.29-57Z"/><path id="_Compound_Path_2" data-name="&lt;Compound Path&gt;" class="cls-1" d="M188.72,379q0,18.39-.87,26a29.16,29.16,0,0,1-17.75,23.71A44.88,44.88,0,0,1,152,432.13a46,46,0,0,1-17.6-3.2,29.34,29.34,0,0,1-18.2-23.55q-.9-7.54-.9-26.38V358.11q0-18.39.87-26a29.16,29.16,0,0,1,17.75-23.7A44.85,44.85,0,0,1,152,305a46,46,0,0,1,17.6,3.2,29.34,29.34,0,0,1,18.2,23.55q.9,7.54.9,26.38ZM157,338.89q0-8.52-.94-10.89a3.75,3.75,0,0,0-3.88-2.37,4.33,4.33,0,0,0-3.81,1.92Q147,329.47,147,338.89v57q0,10.63.87,13.11t4,2.49a3.9,3.9,0,0,0,4.15-2.86q.9-2.86.9-13.64Z"/><path id="_Compound_Path_3" data-name="&lt;Compound Path&gt;" class="cls-1" d="M232.29,307.54v122H200.56v-122Z"/><path id="_Compound_Path_4" data-name="&lt;Compound Path&gt;" class="cls-1" d="M319.12,360.67H287.39V339.47q0-9.25-1-11.55t-4.48-2.29q-3.92,0-5,2.79t-1.05,12.06v56.68q0,8.89,1.05,11.61t4.75,2.71q3.54,0,4.64-2.72T287.39,396V380.65h31.73v4.76q0,18.95-2.68,26.87t-11.83,13.89q-9.16,6-22.57,6-13.95,0-23-5.05t-12-14q-2.94-8.93-2.94-26.87V350.57a158.54,158.54,0,0,1,.9-19.78,27.7,27.7,0,0,1,5.39-12.7,30,30,0,0,1,12.44-9.61A44.91,44.91,0,0,1,281.13,305q14,0,23.14,5.42t12,13.51q2.86,8.09,2.86,25.18Z"/></g><g id="_Group_2" data-name="&lt;Group&gt;"><path id="_Path_" data-name="&lt;Path&gt;" class="cls-1" d="M306.8,144.21c.1-3.2.21-6.41.21-9.61a4.41,4.41,0,0,1-2-1.62c.09,1.48.19,3,.3,4.45a110.65,110.65,0,0,1-5.19-11.78c-.47-1.15-1.6-3.08-2.12-3a7.93,7.93,0,0,0-4.3,2.25,53.17,53.17,0,0,0-5.49,7.6,12.38,12.38,0,0,0-1.71,4.89c-.35,3,0,6.2-3.08,8.7q-2.95-10-4.88-20.08c-.41-2.13-.24-4.07-3.29-3.45a1.82,1.82,0,0,1-1.46-.65c-1.65-2.22-3.12-4.58-4.85-6.73-.67-.83-2-1.92-2.78-1.73-7.22,1.76-12.67-4.54-19.55-4.13-.48,0-1.07-.46-1.48-.85-1.58-1.48-3.12-3-4.64-4.52-1.36-1.37-2.71-3.69-4.76-1.92-.89.77-1,3.59-.29,4.84a39.12,39.12,0,0,0,6.14,8.23c.86.89,3,.88,4.52.67,1.26-.18,2.4-1.24,3.51-1.86A37.05,37.05,0,0,1,254.5,118a3.68,3.68,0,0,1,.49,3.36c-3.65,6.27-9.9,9.38-16,12.5-2.83,1.44-6,2.24-8.89,3.56-2.72,1.23-3.67.79-4.1-2.29-.25-1.81-.1-3.91-1-5.37-4-6.56-8.33-12.89-12.43-19.38-2.33-3.69-5.72-5.76-10.39-7.83.63,1.66.86,2.5,1.24,3.26,3,6.2,6,12.46,9.18,18.57A88.44,88.44,0,0,0,219,134.6c2,2.79,4.5,5.22,6.65,7.92,1.38,1.73,2.48,3.06,5.17,2.08s5.95-1.27,9.71-2c-.82,2.49-1.4,4.2-2,5.92-3.08,9.5-12.13,14-17.93,21.24-2.88,3.59-6.3,6.54-4.71,11.83,1.27,4.23,3,8.29,2.32,13-.4,2.93-1.24,4.8-3.87,5.91a30.84,30.84,0,0,0-2.87,1.26c-3.79,2.06-4.58,4.22-4.28,8.49a5.64,5.64,0,0,1-2.22,4.47c-2.15,1.21-3.82,2.09-3.15,4.92a1.87,1.87,0,0,1-.56,1.57c-4.66,3.46-8.4,8.51-15.1,8.45a27.9,27.9,0,0,0-6.44.93c-2,.47-3.13,0-4.11-2-1.37-2.76-3.34-5.22-4.95-7.87a56.2,56.2,0,0,1-2.84-5.45c-1.28-2.77-2.11-5.82-3.75-8.35-2.82-4.34-3.61-8.37-.49-12.91a6.86,6.86,0,0,0,1.12-4.83c-1.38-6-2.92-12-7.48-16.59a6.3,6.3,0,0,1-1.53-7.55c2.25-5.63.34-8.05-5.85-8.67a3.81,3.81,0,0,1-2.76-1.49c-1.26-2.79-3.29-3-5.78-2.29s-4.61,1.79-7,2.07c-4.39.51-8.83.61-13.26.72-.65,0-1.44-.74-2-1.33-3.25-3.59-6.48-7.19-9.63-10.86-2.84-3.3-4.47-6.81-2.46-11.34a10.27,10.27,0,0,0,.25-5.45c-1.14-7.13,1.81-12.49,6.86-17.12,1.6-1.47,3.37-3,4.24-5,2.71-5.92,6-10.84,13.42-10.63a2.06,2.06,0,0,0,1-.24c6.36-3.54,13.47-3.75,20.43-4.71,3.64-.5,4.42,0,3.78,3.78-.45,2.63.66,4.12,2.83,4.86,4.56,1.57,9.15,3.13,13.83,4.23,1.28.3,3.83-.65,4.27-1.68,1.6-3.71,3.61-3.75,6.51-1.7a5.23,5.23,0,0,0,2.29.77c5.93.76,11.87,1.56,17.82,2.08a4.09,4.09,0,0,0,3-1.83A22.44,22.44,0,0,0,210.41,93a6.2,6.2,0,0,0-.75-4.52c-.46-.67-2.49-.27-3.81-.35s-2.9-.14-4.35-.3c-1-.11-2-.68-3-.53-5.11.78-6.66-.25-8.41-5.14-.43-1.2-1.88-2.76-3-2.84A7.17,7.17,0,0,0,182.5,81c-.46.39.51,2.49.86,3.9l-2.73,1.94c-.35-.81-.54-1.35-.81-1.84-1.51-2.7-2.47-6.06-4.69-7.9-3-2.51-7-4-10.65-5.63-.78-.35-2,.34-3.07.56.38,1.07.44,2.52,1.19,3.14,2.57,2.13,5.38,4,8.1,5.93a3.34,3.34,0,0,1-3,.06c-3.71-2.25-7.3-4.68-11-7-1.38-.87-12.09,1.62-13.31,2.91s-2.36,2.1-3.49,3.2-2.61,2-3,3.26c-1.27,4.48-4.6,6-8.61,6.34-2,.16-4-.71-5.93-1.1-1.93-6.95.31-10.13,7.11-10.31a5.86,5.86,0,0,0,2.08-.1c1.89-.84,4.27-1.4,5.43-2.88,1.68-2.14-.69-3.71-2-5.26a3.89,3.89,0,0,1-.4-1.05l22.61-12.68a60.69,60.69,0,0,0,6.65.47,78.72,78.72,0,0,0,10.68-1c2.1-.39,4-1.67,6-2.62.86-.41,1.76-1.57,2.43-1.43,3.69.8,3.73-1.11,2.81-3.9a36.35,36.35,0,0,0,5.79.33c.87-.08,1.65-1.14,2.47-1.76a14.93,14.93,0,0,0-2.79-1.51c-.57-.18-1.33.38-2,.39a49,49,0,0,1-5.8-.07c-.66-.06-1.25-.8-1.88-1.23a15.94,15.94,0,0,1,1.65-2c.41-.36,1.13-.36,1.58-.7,1.18-.88,2.29-1.86,3.43-2.81a32.15,32.15,0,0,0-5-1.25c-.77-.08-1.64.74-2.45,1.18a48.2,48.2,0,0,1-5.1,2.8c-3.46,1.38-3.9,2.23-2.45,5.34-1,1.3-1.85,2.44-2.66,3.65-1.19,1.77-5.72,3.07-6.59,1.6-2.23-3.76-5-4.15-8.65-2.35-1.59.77-3.52.85-4.29-1.48-.82-2.5,1.15-2.8,2.75-3.52,4.84-2.19,9.67-4.42,14.43-6.76,2.33-1.14,4.38-3.16,6.8-3.73a63.38,63.38,0,0,1,12.38-1.41c9.12-.28,17.77,2.35,26.43,4.89H204.1c1.46,3.13,2.84,4.83,6.11,4,3-.75,6-1.06,9.05-1.68a36.8,36.8,0,0,0,3.8-1.16c1.86.43,3.68,1.17,5.51,1.19,4,.06,8.06-1.47,11.86,1,.5.33,1.37.05,2,.17,3.57.62,7.15,1.19,10.69,1.95a28.75,28.75,0,0,1,4.12,1.5l1.57-4.41a3,3,0,0,0-.39-.65,14.87,14.87,0,0,0-1.32-1.12,118.27,118.27,0,0,0-45.61-20.93,118,118,0,0,0-102.36,25.9A121,121,0,0,0,77.29,85.73c-12.52,27.66-14.88,56.22-7.09,85.46,6.26,23.49,18.63,43.33,36.8,59.68,12.94,11.65,27.51,20.39,44.08,25.32,29.18,8.68,58,7.41,85.57-6.12,36.55-17.93,58.74-47.14,67.41-86.61.2-.23.83-1.45.88-7.74C305.55,151.87,306.67,148.06,306.8,144.21Z"/><path id="_Path_2" data-name="&lt;Path&gt;" class="cls-1" d="M214.11,73.19c-.51-1.79-.93-4-1.17-4-1.71.14-4.27.22-4.89,1.29-1.76,3-2.88,1.68-4.39.07-1.9-2-3.86-2.23-6-.27-3.16,2.85-5.88,5.82-4.47,10.89,3.39-.61,6.52-1.39,9.7-1.68a34.67,34.67,0,0,1,7.16.37c2.62.31,5.21,1.09,7.83,1.2,1.16.05,2.36-1,3.54-1.6-.71-1.21-1.16-2.77-2.19-3.55A31.77,31.77,0,0,0,214.11,73.19Z"/><path id="_Path_3" data-name="&lt;Path&gt;" class="cls-1" d="M241.47,75.13a21.85,21.85,0,0,0,2.71-.73c-.52-.84-.91-2.29-1.58-2.43-2.75-.58-5.65-1.33-8.36-1-4.25.59-4.81,2.54-2.52,6.19,1.15,1.83,3,3.65,3.13,5.59.37,4.42,2.77,7.58,7,7.89,2.53.19,4-1,3.45-3.46-.75-3.67-.26-8.08-5-9.76-.68-.24-1.17-1-2.54-2.31A33.18,33.18,0,0,0,241.47,75.13Z"/><path id="_Path_4" data-name="&lt;Path&gt;" class="cls-1" d="M52.11,138a138.05,138.05,0,0,1,120.81-137,138,138,0,1,0-17.21,275A139.37,139.37,0,0,0,172.92,275,138.05,138.05,0,0,1,52.11,138Z"/></g><g id="_Group_3" data-name="&lt;Group&gt;"><path id="_Compound_Path_5" data-name="&lt;Compound Path&gt;" class="cls-1" d="M21.75,463.34a12.23,12.23,0,0,1-3.46,7.5,10.37,10.37,0,0,1-7.36,2.57q-5.26,0-8.09-3.41T0,460.19q0-6.63,3-10.27a10,10,0,0,1,8.23-3.63,11.64,11.64,0,0,1,5.44,1.22,9,9,0,0,1,3.71,3.56,10.51,10.51,0,0,1,.57,1.07,7.6,7.6,0,0,1,.41,1.11,10.93,10.93,0,0,1,.27,1.31q.11.73.22,1.65H15.53A6.36,6.36,0,0,0,14.15,453a3.46,3.46,0,0,0-2.62-1q-5.09,0-5.09,7.87t4.71,7.92a3.88,3.88,0,0,0,2.95-1.23,5.46,5.46,0,0,0,1.38-3.27Z"/><path id="_Compound_Path_6" data-name="&lt;Compound Path&gt;" class="cls-1" d="M25.21,455.3a15.85,15.85,0,0,1,.65-3.49,7.59,7.59,0,0,1,1.35-2.37q2.38-3.15,8.39-3.15,4.6,0,7.09,1.94a6.59,6.59,0,0,1,2.49,5.52V467.7a9.26,9.26,0,0,0,.3,2.76,2.11,2.11,0,0,0,1.06,1.26v1H39.88c-.11-.32-.19-.6-.24-.82s-.1-.44-.13-.65-.07-.44-.11-.68-.07-.54-.11-.9a12.14,12.14,0,0,1-3.49,2.9,8.83,8.83,0,0,1-4,.82,7.16,7.16,0,0,1-5.38-2,7.58,7.58,0,0,1-2-5.52,8.28,8.28,0,0,1,1.79-5.54,8.13,8.13,0,0,1,5.14-2.64l5.57-.92q2.16-.34,2.16-2.13,0-2.91-3.84-2.91a4.39,4.39,0,0,0-2.92.8,4.36,4.36,0,0,0-1.19,2.78Zm13.91,4.89a3.89,3.89,0,0,1-1.47.8,26,26,0,0,1-2.78.61,6.85,6.85,0,0,0-3.32,1.28,3.28,3.28,0,0,0-.93,2.54,3.24,3.24,0,0,0,.79,2.3,2.86,2.86,0,0,0,2.21.85,5.92,5.92,0,0,0,2.15-.39,5.18,5.18,0,0,0,1.74-1.09,5.46,5.46,0,0,0,1.17-1.62,4.57,4.57,0,0,0,.44-2Z"/><path id="_Compound_Path_7" data-name="&lt;Compound Path&gt;" class="cls-1" d="M57.08,443.92H50.91v-6.29h6.17Zm0,3.05v25.76H50.91V447Z"/><path id="_Compound_Path_8" data-name="&lt;Compound Path&gt;" class="cls-1" d="M63,447h6v4.6a11.21,11.21,0,0,1,2.81-4.12,5.81,5.81,0,0,1,3.73-1.16h.41q.13,0,.84.1v6.88a3.48,3.48,0,0,0-.73-.1h-.84a6.1,6.1,0,0,0-4.54,1.5,6.45,6.45,0,0,0-1.46,4.65v13.41H63Z"/><path id="_Compound_Path_9" data-name="&lt;Compound Path&gt;" class="cls-1" d="M90.84,446.29a12,12,0,0,1,4.9,1A10.69,10.69,0,0,1,99.5,450a12.45,12.45,0,0,1,2.41,4.29,17.5,17.5,0,0,1,.84,5.59,16.84,16.84,0,0,1-.87,5.54,12.51,12.51,0,0,1-2.43,4.26,10.74,10.74,0,0,1-3.79,2.74,13.28,13.28,0,0,1-10,0,10.72,10.72,0,0,1-3.79-2.74,12.49,12.49,0,0,1-2.43-4.26,16.82,16.82,0,0,1-.87-5.54,17.35,17.35,0,0,1,.87-5.67A12.46,12.46,0,0,1,81.91,450a10.39,10.39,0,0,1,3.84-2.71A13.14,13.14,0,0,1,90.84,446.29Zm-.22,5.76a4.76,4.76,0,0,0-4.15,2,10,10,0,0,0-1.42,5.77,9.81,9.81,0,0,0,1.45,5.8,5.37,5.37,0,0,0,8.36,0,12.39,12.39,0,0,0,0-11.62A4.92,4.92,0,0,0,90.63,452.06Z"/><path id="_Compound_Path_10" data-name="&lt;Compound Path&gt;" class="cls-1" d="M140.73,472.69h-6v-3.78a8.58,8.58,0,0,1-3,3.42,8.22,8.22,0,0,1-4.36,1.07,7.21,7.21,0,0,1-5.9-2.49q-2.06-2.49-2.06-7V446.92h6.17v16q0,4.75,4,4.75a4.47,4.47,0,0,0,3.62-1.55,6.51,6.51,0,0,0,1.3-4.31V446.92h6.17Z"/><path id="_Compound_Path_11" data-name="&lt;Compound Path&gt;" class="cls-1" d="M152.47,450.93a8.85,8.85,0,0,1,2.95-3.54,8.86,8.86,0,0,1,10.25,1.23,8.74,8.74,0,0,1,2.22,6.29v17.82h-6.17v-15.6a6.27,6.27,0,0,0-.95-3.89,3.68,3.68,0,0,0-3.06-1.18,4.55,4.55,0,0,0-3.71,1.59,6.59,6.59,0,0,0-1.33,4.35v14.73h-6.17V447h6Z"/><path id="_Compound_Path_12" data-name="&lt;Compound Path&gt;" class="cls-1" d="M180,443.92h-6.17v-6.29H180Zm0,3.05v25.76h-6.17V447Z"/><path id="_Compound_Path_13" data-name="&lt;Compound Path&gt;" class="cls-1" d="M198.67,472.73h-6.55L183.69,447h6.93l4.92,19.17,5-19.17h6.6Z"/><path id="_Compound_Path_14" data-name="&lt;Compound Path&gt;" class="cls-1" d="M230.27,465.13a15.5,15.5,0,0,1-1.68,3.87,9.5,9.5,0,0,1-2.49,2.52,11,11,0,0,1-6.44,1.89q-5.57,0-8.55-3.53t-3-10.12q0-6.34,2.95-9.9a10.12,10.12,0,0,1,8.25-3.56q5.41,0,8.31,3.66t2.89,10.58v1.21H214.37a8.11,8.11,0,0,0,1.57,4.72,4.84,4.84,0,0,0,3.84,1.48,3.89,3.89,0,0,0,4.11-2.81Zm-6.11-7.84q-.65-5.42-4.87-5.42a4,4,0,0,0-3.19,1.31,8.16,8.16,0,0,0-1.57,4.12Z"/><path id="_Compound_Path_15" data-name="&lt;Compound Path&gt;" class="cls-1" d="M234.6,447h6v4.6a11.2,11.2,0,0,1,2.81-4.12,5.81,5.81,0,0,1,3.73-1.16h.41q.13,0,.84.1v6.88a3.49,3.49,0,0,0-.73-.1h-.84a6.1,6.1,0,0,0-4.54,1.5,6.45,6.45,0,0,0-1.46,4.65v13.41H234.6Z"/><path id="_Compound_Path_16" data-name="&lt;Compound Path&gt;" class="cls-1" d="M265.22,454.82A4.1,4.1,0,0,0,264,452.2a4.83,4.83,0,0,0-3-.73q-3.73,0-3.73,2.42a2,2,0,0,0,1.19,1.69,12.33,12.33,0,0,0,3.9,1.11,19.38,19.38,0,0,1,5.52,1.67,8,8,0,0,1,3.19,2.54,7,7,0,0,1,1,3.78,7.89,7.89,0,0,1-2.76,6.42q-2.76,2.3-7.68,2.3a16.05,16.05,0,0,1-4.6-.63,11,11,0,0,1-3.57-1.74,7.15,7.15,0,0,1-2.11-2.57,13,13,0,0,1-.92-4h6.38a3.62,3.62,0,0,0,1.27,2.83,6.21,6.21,0,0,0,3.76.9,5.43,5.43,0,0,0,3-.7,2.21,2.21,0,0,0,1.08-2q0-1.94-5.16-2.86-4.94-.82-7.22-2.71a6.31,6.31,0,0,1-2.28-5.13,8.6,8.6,0,0,1,1.52-5q2.43-3.53,8.28-3.53,4.65,0,7.25,2a7,7,0,0,1,2,2.47,14.36,14.36,0,0,1,1.06,4Z"/><path id="_Compound_Path_17" data-name="&lt;Compound Path&gt;" class="cls-1" d="M282.92,443.92h-6.17v-6.29h6.17Zm0,3.05v25.76h-6.17V447Z"/><path id="_Compound_Path_18" data-name="&lt;Compound Path&gt;" class="cls-1" d="M295.79,447h3.9v4.84h-3.9v14q0,1.36.46,1.72a3.82,3.82,0,0,0,2.08.36h.51a7.53,7.53,0,0,0,.84-.1v5.13l-1.27.07-.76,0H295.9q-3.41,0-4.84-1.26t-1.43-4.31V451.81h-3.19V447h3.19v-7h6.17Z"/><path id="_Compound_Path_19" data-name="&lt;Compound Path&gt;" class="cls-1" d="M316.57,472.3q-1.19,3.73-2,5.88a11.68,11.68,0,0,1-1.76,3.24,4,4,0,0,1-2.11,1.38,13.38,13.38,0,0,1-3.08.29h-1.11q-.51,0-1.87-.1v-5.42a2.64,2.64,0,0,0,.62.1h.68a6.92,6.92,0,0,0,1.65-.17,2.33,2.33,0,0,0,1.11-.61,3.5,3.5,0,0,0,.73-1.19,10.63,10.63,0,0,0,.51-1.91L301.2,447h6.93l5.09,19.17L318.08,447h6.6Z"/></g></svg>